<?xml version="1.0" encoding="utf-8"?>
<!-- Generator: Adobe Illustrator 22.1.0, SVG Export Plug-In . SVG Version: 6.00 Build 0)  -->
<svg version="1.1" id="Layer_1" xmlns="http://www.w3.org/2000/svg" xmlns:xlink="http://www.w3.org/1999/xlink" x="0px" y="0px"
	 viewBox="0 0 104.5 107" style="enable-background:new 0 0 104.5 107;" xml:space="preserve">
<style type="text/css">
	.st0{fill:#FFFFFF;}
	.st1{fill:none;stroke:#33333E;stroke-width:1.7859;stroke-miterlimit:10;}
	.st2{fill:#33333E;}
</style>
<g>
	<g>
		<path class="st0" d="M102,56c-0.4-0.5-0.8-0.9-1.4-1.2c-0.6-0.3-1.3-0.3-2-0.3l0,0c0.9-5.7,1-11.7,0-17.8
			c-3.1-18.6-23-36.9-54-35.8c0,0-11.6,0.4-22.9,6.6l0,0c0,0,0,0,0,0c-3,1.6-5.9,3.6-8.6,6.1C0.2,25.7-1.2,44,3.1,55.5
			C7.3,67,5.6,77.2,9.6,85.6l-0.2,0.1c0.1,0.1,0.2,0.2,0.3,0.3c1.5,2.9,3.7,5.6,7.1,8c13.4,9.6,27.7,13.6,37.9,11.6
			c10.3-2,28.6-10.3,33.9-21.9c0.3-0.6,0.5-1.2,0.8-1.8l0,0l0,0c1.4-3.1,2.9-6.5,4.3-10.1c1.7-0.6,3.3-1.3,4.8-2.3
			c2.3-1.5,4.2-3.6,4.9-6.2C104.2,60.9,103.6,58,102,56z"/>
	</g>
	<g>
		<path class="st1" d="M97.5,60.5c-0.1,0.3-0.1,0.5-0.2,0.8"/>
		<path class="st1" d="M98.6,54.6c0.9-5.7,1-11.7,0-17.8c-3.1-18.6-23-36.9-54-35.8c0,0-18.5,0.7-31.5,12.7S-1.2,44,3.1,55.5
			c5.8,15.7,0.4,29,13.8,38.6s27.7,13.6,37.9,11.6c10.3-2,28.6-10.3,33.9-21.9c1.6-3.5,3.5-7.5,5.1-11.9v0"/>
		<g>
			<g>
				<path class="st2" d="M91.6,66.6c1.1-3.9,5.2-5.2,8.7-6.2c0.8-0.2,0.5-1.5-0.4-1.3c-4,1.1-8.4,2.7-9.7,7.2
					C90.1,67,91.4,67.4,91.6,66.6L91.6,66.6z"/>
			</g>
		</g>
		<g>
			<g>
				<path class="st2" d="M96.6,61.5c1.3,1.5,1.7,3.5,1.2,5.4c-0.2,0.8,1,1.2,1.3,0.4c0.7-2.4,0.1-4.8-1.5-6.7
					C96.9,59.9,96,60.8,96.6,61.5L96.6,61.5z"/>
			</g>
		</g>
		<g>
			<g>
				<path class="st2" d="M62.1,51.5c-2.1,0.9-3.2,3.3-2.4,5.5c0.7,1.9,2.7,2.9,4.5,1.6c1.6-1.3,1.8-4.4,0.8-6.1
					c-1.2-2-3.8-1.6-4.6,0.4C59.5,54.7,60,57.3,62,58c2.4,0.8,2.9-1.9,2.7-3.7c-0.2-2.2-2.3-3-3.6-1c-0.5,0.8-0.8,1.7-0.4,2.6
					c0.4,0.9,1.3,1.4,2.2,1.1c1.6-0.5,2-4.5,0-3.9c-2,0.6-1,4.6,0.5,3c0.6-0.6-0.3-1.6-0.9-0.9c-0.1,0.1-0.1,0.1-0.2,0.2
					c0.2-0.1,0.4-0.1,0.7-0.2c0.2-0.1,0.2-0.2,0-0.3c-0.3-0.4-0.4-0.1-0.4,0.8c-1.2,0.6-0.6-3.4,0.7-1.6c0.2,0.3,0.1,2.3-0.2,2.6
					c-0.7,0.6-1.5-0.4-1.7-1c-0.1-0.4-0.2-0.9-0.1-1.3c0.1-1.4,1.6-2.8,2.6-0.9c0.4,0.8,0.4,1.9,0.2,2.8c-0.3,1.2-1.5,2.4-2.6,1.2
					c-1.6-1.6-0.4-4,1.3-4.7C63.6,52.3,62.9,51.2,62.1,51.5L62.1,51.5z"/>
			</g>
		</g>
		<g>
			<g>
				<path class="st2" d="M20.9,55.1c-1.5-0.7-2.7,0.4-3,1.9c-0.3,1.8,0.7,3.6,2.3,4.4c1.5,0.7,3.1,0.4,3.4-1.4
					c0.3-1.7-0.6-3.6-1.8-4.7c-1.3-1.1-2.6-0.1-3,1.4c-0.3,1.5,0.2,3.9,1.8,4.5c1.5,0.6,2.5-1.3,2.5-2.5c0-1.2-1.1-3.3-2.6-2.8
					c-1.5,0.6-1.2,3.7,0.1,4.4c0.7,0.3,1.3-0.2,1.5-0.9c0.3-1,0.1-2-0.4-2.8c-0.4-0.7-1.6-0.1-1.2,0.7c0.2,0.4,0.4,0.8,0.3,1.3
					c-0.1,1.3,0-0.5,0-0.7c0.1-0.7,0.3-0.6,0.6,0c0.2,0.4,0.3,0.9,0.2,1.3c-0.7,3.1-2.9-3.8-0.8-2.7c0.9,0.5,2.4,4.1,0.5,4
					c-0.9,0-1.8-1-2-1.8c-0.2-0.4-0.4-3,0.8-2.4C21,56.6,21.7,55.5,20.9,55.1L20.9,55.1z"/>
			</g>
		</g>
		<g>
			<g>
				<path class="st2" d="M13.4,55.5c1.4-4.2,8.9-5.6,12.7-5.9c0.9-0.1,0.9-1.4,0-1.3c-4.5,0.3-12.3,1.9-13.9,6.9
					C11.9,55.9,13.1,56.3,13.4,55.5L13.4,55.5z"/>
			</g>
		</g>
		<g>
			<g>
				<path class="st2" d="M58.2,45.2c6.4-1.3,12.7,0.6,17.4,5.1c0.6,0.6,1.6-0.3,0.9-0.9c-5-4.9-11.8-6.9-18.7-5.5
					C57,44,57.4,45.3,58.2,45.2L58.2,45.2z"/>
			</g>
		</g>
		<g>
			<g>
				<path class="st2" d="M38.5,52.7c0.1,4.9,0,9.7-0.3,14.6c-0.1,0.9,1.3,0.9,1.3,0c0.3-4.9,0.4-9.7,0.3-14.6
					C39.8,51.9,38.5,51.9,38.5,52.7L38.5,52.7z"/>
			</g>
		</g>
		<g>
			<g>
				<path class="st2" d="M33.3,66.8c-1.1,5.1,5.8,8.9,10.2,6.9c1-0.5,1.7-1.3,2.5-2c1.1-1,2.6-1.8,3.5-2.9c1.4-1.8,1-3.8-0.5-5.3
					c-0.6-0.6-1.6,0.3-0.9,0.9c2.5,2.4-2.2,5.8-3.9,7.2c-3,2.4-10.5,0.3-9.5-4.5C34.8,66.3,33.5,65.9,33.3,66.8L33.3,66.8z"/>
			</g>
		</g>
		<g>
			<g>
				<path class="st2" d="M21.2,8c4,4.1,9,7.1,14.7,7.9c6.5,0.9,10.5-1.3,15.5-5c7.1-5.3,18.2-3,25.3,1.4c7.8,4.8,13.5,13.4,15,22.4
					c0.8,4.9-0.2,9.4-2.4,13.8c-1.2,2.4-2.8,4.1-3.3,6.8c-0.4,2.6-0.2,5.3-0.4,7.9c-0.4,5.4-2.8,10.1-5.5,14.7c-1,1.7-2,3.7-3.4,5
					c-3.2,2.8-3.4,2.5-6.7-0.3c-6.8-5.7-1.6-0.1-3.2-4.4c-0.8-2-1.2-3.7-3-5.1c-3.9-3.1-10.5-1.7-15-1.2c-5.9,0.6-13.3,0.6-18.6,3.7
					c-2.4,1.4-3.5,3.3-4.2,5.9c-0.9,3.3-0.4,3.5-3.8,5.8c-3,2.1-3.1,2.3-6.5,1.2c-2.2-0.7-4-1.7-5.7-3.2c-0.7-0.6-1.6,0.4-0.9,0.9
					c3.6,3,10.8,6.6,15.1,2.9c2.2-1.9,2.2-4.8,3.1-7.3c2.1-6.3,8.6-7.1,14.3-7.8c3.9-0.5,7.7-1,11.6-1.2c1.5-0.1,3-0.2,4.4-0.2
					c2.5,0.1,3.1,0.3,5.1,1.9c2.7,2.1,2.1,4.2,2.9,7.1c1.3,4.4,4.9,6.5,9.4,4.2c5.7-3,9.8-12.4,11.3-18.4c0.8-3.3,0.6-6.6,0.8-9.9
					c0.3-4.5,3.1-7.3,4.7-11.4C97.4,31.7,86.7,14.6,73.3,9c-6.1-2.6-14.8-4-20.8-0.5c-4.9,2.9-7.8,6.4-14.1,6.2
					C32,14.5,26.5,11.5,22.2,7C21.6,6.4,20.6,7.4,21.2,8L21.2,8z"/>
			</g>
		</g>
		<g>
			<g>
				<path class="st2" d="M35.2,85.7c8.2,0.8,16.5,0.3,22.8-5.5c-0.4-0.2-0.7-0.4-1.1-0.7c-0.9,3.7-2.1,7-5.6,9
					c-3.5,2-7.6,3.4-11.7,3.5c-0.9,0-0.9,1.4,0,1.3c4.5-0.1,9.6-1.7,13.4-4.3c3.1-2.1,4.3-5.7,5.2-9.2c0.2-0.7-0.6-1.1-1.1-0.7
					c-6,5.6-14.1,5.9-21.8,5.1C34.4,84.3,34.4,85.6,35.2,85.7L35.2,85.7z"/>
			</g>
		</g>
		<g>
			<g>
				<path class="st2" d="M42.7,92.5c0-2.6-0.5-5.2-1.7-7.5c-0.4-0.8-1.5-0.1-1.2,0.7c1,2.1,1.4,4.5,1.5,6.8
					C41.4,93.4,42.7,93.4,42.7,92.5L42.7,92.5z"/>
			</g>
		</g>
		<g>
			<g>
				<path class="st2" d="M90.3,82c1.1-8.1-4.3-16,1.4-23.4c4-5.1,12.5-2.5,11.2,4.6c-0.9,5.2-7.6,7.5-11.8,8.9
					c-0.8,0.3-0.5,1.6,0.4,1.3c5.1-1.7,11.2-4,12.8-9.8c1-3.7-0.6-9.1-4.8-9.7c-4.7-0.7-8.6,2.7-10.4,6.6c-3.5,7.3,1,14.1,0,21.5
					C88.8,82.8,90.2,82.8,90.3,82L90.3,82z"/>
			</g>
		</g>
		<g>
			<g>
				<path class="st2" d="M20.1,57.6c-0.1,0.4-0.1,0.7,0,1.1c0.1,0.4,0.5,0.6,0.8,0.5c0.4-0.1,0.5-0.5,0.5-0.8c0-0.1,0-0.3,0-0.4
					C21.6,57.1,20.3,56.8,20.1,57.6L20.1,57.6z"/>
			</g>
		</g>
		<g>
			<g>
				<path class="st0" d="M18.4,56.4c-0.2,0.5-0.1,1,0.3,1.3c0.4,0.3,0.9,0.2,1.2-0.2c0.5-0.7,0-1.9-0.9-1.6
					c-0.8,0.2-0.5,1.5,0.4,1.3c-0.7-0.1-0.8-0.3-0.2-0.6c0.2,0.1,0.3,0.1,0.5,0.2c0,0,0.1,0.1,0.1,0.1C20,55.9,18.7,55.6,18.4,56.4
					L18.4,56.4z"/>
			</g>
		</g>
		<g>
			<g>
				<path class="st0" d="M61.3,52.1c-0.4,0.3-0.7,0.6-0.6,1.1c0.1,0.5,0.5,0.9,1.1,0.9c0.5,0,0.8-0.4,0.9-0.8c0.1-0.6-0.2-1-0.7-1.2
					c-0.8-0.3-1.2,1-0.4,1.3c0,0,0.1,0,0.1,0c-0.1-0.1-0.3-0.2-0.4-0.3c0.2,0.1,0.4,0.1,0.6,0.2C62.6,52.7,61.9,51.6,61.3,52.1
					L61.3,52.1z"/>
			</g>
		</g>
		<g>
			<g>
				<path class="st2" d="M23.1,8.4c1.6,0.5,2.7,1.6,3.8,2.8c0.3-0.3,0.6-0.6,0.9-0.9c-1.1-1.1-2.2-1.9-3.5-2.7
					c-0.6-0.3-1.3,0.3-0.9,0.9c1.2,2,3.7,3.4,5.7,4.5c2.2,1.3,4.6,2,7.2,1.9c0.9,0,0.9-1.4,0-1.3c-2.4,0.1-4.4-0.6-6.5-1.7
					c-1.7-1-4.2-2.3-5.3-4c-0.3,0.3-0.6,0.6-0.9,0.9c1.2,0.7,2.3,1.5,3.2,2.5c0.6,0.6,1.5-0.3,0.9-0.9c-1.3-1.4-2.6-2.5-4.4-3.1
					C22.6,6.8,22.3,8.1,23.1,8.4L23.1,8.4z"/>
			</g>
		</g>
		<g>
			<g>
				<path class="st2" d="M38.2,12.3c-0.5-0.7-1-1.3-1.7-1.9c-0.5-0.5-1.4-0.5-1.9,0c-0.5,0.5-0.5,1.4,0,1.9c0.5,0.4,0.9,0.9,1.2,1.3
					c0.4,0.6,1.2,0.9,1.8,0.5C38.3,13.8,38.6,12.9,38.2,12.3L38.2,12.3z"/>
			</g>
		</g>
		<g>
			<g>
				<path class="st2" d="M27,11.1c3,2.1,6.1,3.1,9.7,3.4c1,0.1,1.6-1.2,1.2-2c-1.4-2.5-3.5-3.3-6.3-3.9c-0.1,0.9-0.2,1.8-0.4,2.6
					c0.8,0,1.6,0.1,2.4,0.1c1.5,0.1,1.8-2.2,0.4-2.6c-2.9-0.8-5.8-1.6-8.7-2.4c0,0.9,0,1.7,0,2.6c3.8-1.5,7.9-3.7,12-4.1
					c-0.1-0.9-0.2-1.8-0.4-2.6c-3.2,0.9-5.8,2.4-8.2,4.7c-0.9,0.9,0,2.6,1.3,2.2c3-0.9,6.1-1.7,9.1-2.6c-0.3-0.8-0.7-1.6-1-2.4
					c-2,1.2-7.4,2.2-5.3,5.9c1.5,2.8,5.6,0.7,7.6-0.2C41,9.7,41.1,9,41,8.4c0-0.6,0.1-1.1,0.1-1.7c0.3-1.2-0.9-2-2-1.5
					c-1.5,0.8-3,1.5-4.6,2.1c-1.3,0.5-1.3,2.7,0.4,2.6c2.2-0.1,4.4-0.3,6.6-0.4C41.2,8.7,41,7.8,40.8,7c-1.6,0.9-7.3,4.1-4.1,6.5
					c2.7,2.1,5.6-1.6,6-3.9c-0.5,0.3-1.1,0.6-1.6,0.9c1,0.3-4.7,1.9-5.1,2c-1.4,0.2-1.2,2.3,0,2.6C43,17,46.7,13.3,52.6,9.5
					c1.2-0.8,0.5-3-1-2.4c-3.7,1.4-7.3,2.7-11.1,3.8c-1.2,0.3-1.4,2.4,0,2.6c4.4,0.7,6.7-2.1,10.6-3.7c1.3-0.5,1.3-2.8-0.4-2.6
					c-3.3,0.3-6.5,0.5-9.8,0.8c0.1,0.9,0.2,1.8,0.4,2.6c2.8-0.8,5.6-1.6,8.5-2.3c1.5-0.4,1.1-2.5-0.4-2.6c-2.9-0.2-5.8-0.3-8.7-0.4
					c0.1,0.9,0.2,1.8,0.4,2.6c1.9-0.5,3.7-0.8,5.7-0.9c1.8-0.1,1.7-2.5,0-2.7c-3.2-0.4-6.3-0.7-9.5-1c0.1,0.9,0.2,1.8,0.4,2.6
					c1.9-0.4,3.7-0.7,5.6-0.8c1.7-0.1,1.7-2.6,0-2.7c-1.6,0-3.2-0.2-4.7-0.6c0,0.9,0,1.7,0,2.6c5.6-0.9,11.1-0.9,16.7,0
					c0.1-0.9,0.2-1.8,0.4-2.6c-4.2,0.2-9.2-0.3-13.1,1.6c-1.2,0.6-0.6,2.5,0.7,2.5c3.8,0,7.7,0,11.5,0C54.2,4.9,54,4,53.8,3.2
					c-1.5,0.7-3.1,1.2-4.7,1.5c-1.5,0.3-1.1,2.6,0.4,2.6c1.9,0,3.7-0.1,5.6-0.4c-0.2-0.8-0.5-1.7-0.7-2.5c-1,0.7-2.1,1.2-3.2,1.5
					c-1.2,0.4-1.4,2.2,0,2.6c3.3,0.8,6.6-0.9,9.7-1.8c1.2-0.4,1.4-2.4,0-2.6c-2.1-0.3-4.2-0.6-6.3-1c0,0.9,0,1.7,0,2.6
					c1.3-0.6,2.6-0.8,4-0.6c1.4,0,1.7-1.8,0.7-2.5c-1.3-0.9-2.4-1.2-3.9-1.3c-1.5-0.2-1.9,2.4-0.4,2.6c2.6,0.4,5.1,0.8,7.7,1.4
					c0-0.9,0-1.7,0-2.6c-1.4,0.6-1.7,0.7-3,1.5C58.4,5,59,6.6,60.3,6.7c2,0.2,3.8,0.3,5.8,0.2c1.6,0,1.7-2.1,0.4-2.6
					c-0.8-0.4-1.7-0.7-2.6-0.9c-0.2,0.9-0.5,1.7-0.7,2.6c2.1,0.5,4.1,1.1,6.1,1.8c0.1-0.9,0.2-1.8,0.4-2.6c-0.9,0.1-1.8,0-2.7-0.2
					c-1.5-0.2-1.8,2.4-0.4,2.6c3.6,0.7,6.9,1.8,10.2,3.5c1.5,0.8,2.9-1.5,1.4-2.3c-3.5-1.8-7-3-10.8-3.8C67,6,66.9,6.8,66.8,7.7
					c0.9,0.2,1.8,0.2,2.7,0.2c1.6,0,1.7-2.1,0.4-2.6c-2-0.7-4-1.3-6.1-1.8c-1.7-0.4-2.4,2.1-0.7,2.6c0.9,0.2,1.8,0.5,2.6,0.9
					C65.8,6,66,5.2,66.1,4.3c-2,0-3.8,0-5.8-0.2c0.2,0.8,0.5,1.7,0.7,2.5c0.8-0.4,1.5-0.8,2.3-1.2c1.1-0.5,1.4-2.3,0-2.6
					c-2.6-0.6-5.1-1-7.7-1.4c-0.1,0.9-0.2,1.8-0.4,2.6c0.9,0.3,1.7,0.7,2.6,1c0.2-0.8,0.5-1.7,0.7-2.5c-1.7,0-3.1,0.2-4.7,0.7
					c-1.1,0.4-1.4,2.4,0,2.6c2.1,0.3,4.2,0.6,6.3,1c0-0.9,0-1.7,0-2.6c-2.3,0.7-5.8,2.5-8.3,1.8c0,0.9,0,1.7,0,2.6
					c1.4-0.5,2.6-1,3.9-1.8c1-0.6,0.7-2.7-0.7-2.5c-1.9,0.2-3.7,0.4-5.6,0.4c0.1,0.9,0.2,1.8,0.4,2.6c1.9-0.4,3.6-1,5.4-1.7
					C56.4,5,55.7,3,54.5,3c-3.8,0-7.7,0-11.5,0c0.2,0.8,0.5,1.7,0.7,2.5c3.2-1.6,8.2-1.1,11.7-1.2c1.4-0.1,1.9-2.4,0.4-2.6
					c-6.1-1-12-1-18.1,0c-1.3,0.2-1.2,2.3,0,2.6c1.8,0.4,3.6,0.6,5.4,0.7c0-0.9,0-1.8,0-2.7c-2.2,0.1-4.2,0.4-6.3,0.9
					c-1.5,0.4-1.1,2.5,0.4,2.6c3.2,0.3,6.4,0.6,9.5,1c0-0.9,0-1.8,0-2.7c-2.2,0.1-4.2,0.4-6.4,1c-1.5,0.4-1.2,2.6,0.4,2.6
					c2.9,0.1,5.8,0.2,8.7,0.4c-0.1-0.9-0.2-1.8-0.4-2.6c-2.8,0.8-5.6,1.6-8.5,2.3c-1.4,0.4-1.2,2.8,0.4,2.6c3.3-0.3,6.5-0.5,9.8-0.8
					c-0.1-0.9-0.2-1.8-0.4-2.6c-2.8,1.2-6,4.2-9.1,3.7c0,0.9,0,1.7,0,2.6c3.8-1,7.4-2.4,11.1-3.8c-0.3-0.8-0.7-1.6-1-2.4
					c-4.8,3.1-8.6,7-14.6,5.3c0,0.9,0,1.7,0,2.6c2.4-0.4,5.3-1.1,6.3-3.6c0.6-1.5,0.5-3.1-1.2-3.6c-0.6-0.2-1.5,0.2-1.6,0.9
					c-2,3-2.1,3.6-0.3,2c0.7-0.6,1.5-1.2,2.4-1.6c1.1-0.6,0.7-2.6-0.7-2.5c-2.2,0.1-4.4,0.3-6.6,0.4C35,8.1,35.1,9,35.2,9.9
					c1.8-0.7,3.5-1.5,5.3-2.4c-0.7-0.5-1.3-1-2-1.5c0.2-0.8-0.8,3.3-1,1.8c-1.1-0.1-0.9-0.2,0.6-0.5c0.5-0.2,1-0.4,1.4-0.8
					c1.3-0.8,0.4-2.9-1-2.4c-3,0.9-6.1,1.7-9.1,2.6c0.4,0.7,0.9,1.5,1.3,2.2c2-2,4.2-3.3,7-4.1c1.4-0.4,1.2-2.8-0.4-2.6
					c-4.5,0.4-8.6,2.5-12.7,4.2c-1.2,0.5-1.4,2.2,0,2.6c2.9,0.8,5.8,1.6,8.7,2.4c0.1-0.9,0.2-1.8,0.4-2.6c-0.8,0-1.6-0.1-2.4-0.1
					c-1.5-0.1-1.8,2.3-0.4,2.6c1.9,0.2,3.5,1.1,4.7,2.6c0.4-0.7,0.8-1.3,1.2-2c-3.2-0.2-5.7-1.2-8.4-3C26.9,7.8,25.6,10.2,27,11.1
					L27,11.1z"/>
			</g>
		</g>
		<g>
			<g>
				<path class="st2" d="M77.4,12.1c9.9,4.8,17,16.3,18.5,26.9c0.2,1.7,2.8,1,2.6-0.7C96.9,27,89.3,14.9,78.8,9.8
					C77.2,9,75.9,11.3,77.4,12.1L77.4,12.1z"/>
			</g>
		</g>
		<g>
			<g>
				<path class="st2" d="M84.5,18.9c2.5,3,4.4,5.3,6,8.9c1.9,4.1,3.3,8.3,3.6,12.8c0.1,1.7,2.8,1.7,2.7,0c-0.3-4.4-1.5-8.6-3.3-12.7
					c-0.9-2.1-1.9-4.2-3-6.2c-1.1-1.9-2.7-3-4.1-4.7C85.3,15.6,83.5,17.5,84.5,18.9L84.5,18.9z"/>
			</g>
		</g>
		<g>
			<g>
				<path class="st2" d="M91.6,33.5c0.4,2.2,1.3,4.3,1.4,6.6c0,2.4-0.6,4.7-1.8,6.8c-0.8,1.5,1.5,2.9,2.3,1.4c1.3-2.2,2-4.6,2.1-7.2
					c0.1-2.9-0.9-5.4-1.4-8.2C93.9,31.1,91.3,31.8,91.6,33.5L91.6,33.5z"/>
			</g>
		</g>
		<g>
			<g>
				<path class="st2" d="M95.6,35.8c1.1,2.8,0.6,5.6,0.4,8.5c-0.2,3-0.3,5.9-0.4,8.9c0.8-0.2,1.7-0.5,2.5-0.7
					c-0.8-1.7-0.3-4.6-0.3-6.4c0-2.2,0.1-4.3,0.1-6.5c0-1.5-2.2-1.8-2.6-0.4c-1,3.3-1,7-1.4,10.4c-0.2,2.3-0.7,4.2,1.3,5.6
					c1.1,0.8,2.5-0.7,1.8-1.8c-1.7-2.5-2.4-5.1-2.3-8.1c-0.9,0.1-1.8,0.2-2.6,0.4c0.5,1.2-1.4,3.2-2,4.2c0.8,0.3,1.6,0.7,2.4,1
					c0-0.2,0.1-0.3,0.1-0.5c1.1-1.3-0.8-3.2-1.9-1.9c-0.5,0.6-0.7,0.9-0.8,1.7c-0.2,1.4,1.6,2.4,2.4,1c1.2-1.9,3.1-3.9,2.3-6.2
					c-0.5-1.4-2.6-1.2-2.6,0.4c-0.1,3.5,0.8,6.6,2.7,9.5c0.6-0.6,1.2-1.2,1.8-1.8c-0.8-0.6,0.2-5.2,0.3-5.9c0.2-2.3,0.3-4.7,1-7
					c-0.9-0.1-1.8-0.2-2.6-0.4c0,2.9-0.1,5.7-0.1,8.6c0,2-0.2,3.7,0.7,5.6c0.6,1.3,2.5,0.6,2.5-0.7c0.1-5.5,2-12.8-0.1-18
					C97.5,33.5,94.9,34.2,95.6,35.8L95.6,35.8z"/>
			</g>
		</g>
		<g>
			<g>
				<path class="st2" d="M90.4,47.9c-0.2,1.9-0.9,3.3-2.2,4.6c0.4,0.3,0.7,0.5,1.1,0.8c0.5-1,1.1-2,1.7-3c-0.4-0.2-0.8-0.5-1.2-0.7
					c-0.9,1.9-1.9,3.8-2.8,5.7c0.4,0.2,0.8,0.3,1.2,0.5c0.2-1.2,0.4-1.9,1-3c-0.4-0.2-0.8-0.5-1.2-0.7c-1.6,3.4-1.3,7.5-1.4,11.2
					c0,0.8,1.1,0.9,1.3,0.2c1.3-4.5,3.5-7.7,7.9-9.6c-0.3-0.3-0.7-0.5-1-0.8c-0.5,1.5-4.2,2.3-5.4,3.6c0.4,0.2,0.7,0.4,1.1,0.7
					c0.7-2.1,1.8-3.4,3.7-4.5c-0.3-0.3-0.7-0.5-1-0.8c-0.5,0.6-1,1.2-1.4,1.9c0.4,0.3,0.7,0.5,1.1,0.8c0.3-0.5,0.7-1.1,1-1.6
					c0.3-0.5-0.2-1.2-0.8-1c-0.5,0.2-0.8,0.3-1.3,0.6c0.3,0.3,0.7,0.5,1,0.8c0.2-1,0.6-2,1.2-2.8c0.4-0.6-0.6-1.4-1.1-0.8
					c-0.7,0.9-1.4,1.7-2.2,2.4c0.4,0.2,0.7,0.4,1.1,0.7c0.2-1,0.6-1.9,1-2.7c-0.4-0.2-0.8-0.5-1.2-0.7c-0.6,1.4-1.2,2.7-1.8,4.1
					c0.4,0.1,0.8,0.2,1.2,0.3c0.1-1,0.2-2.1,0.4-3.1c0.1-0.7-0.9-0.9-1.2-0.3c-0.5,0.9-1,1.8-1.5,2.7c0.4,0.2,0.8,0.5,1.2,0.7
					c0.4-0.8,0.8-1.6,1.2-2.4c-0.4-0.2-0.8-0.5-1.2-0.7c-1,1.9-2.1,3.8-2.6,5.9c-0.2,0.9,1,1.2,1.3,0.4c0.5-1.5,1.1-2.4,2.1-3.6
					c-0.4-0.2-0.8-0.3-1.1-0.5c-0.2,1.1-0.6,2.2-1.2,3.1c0.4,0.2,0.8,0.5,1.2,0.7c0.4-0.8,0.8-1.6,1.3-2.5c-0.4-0.2-0.8-0.3-1.2-0.5
					c-0.6,1.7-1.3,3.4-2.2,5c0.4,0.1,0.8,0.2,1.2,0.3c0-1.2,0.2-2.3,0.6-3.5c-0.4-0.1-0.9-0.1-1.3-0.2c-0.1,0.9-0.3,1.8-0.5,2.7
					c-0.2,0.8,1.1,1.2,1.3,0.4c0.2-1,0.4-2,0.5-3.1c0.1-0.8-1.1-0.9-1.3-0.2c-0.4,1.3-0.6,2.5-0.7,3.8c0,0.7,0.9,0.9,1.2,0.3
					c0.9-1.7,1.7-3.5,2.3-5.4c0.2-0.7-0.9-1.2-1.2-0.5c-0.4,0.8-0.8,1.6-1.3,2.5c-0.4,0.8,0.7,1.4,1.2,0.7c0.7-1.3,1.2-2.3,1.4-3.8
					c0.1-0.6-0.8-0.9-1.1-0.5c-1.1,1.3-1.9,2.6-2.5,4.2c0.4,0.1,0.9,0.2,1.3,0.4c0.5-2,1.6-3.8,2.5-5.6c0.4-0.8-0.7-1.4-1.2-0.7
					c-0.5,0.8-0.8,1.5-1.2,2.4c-0.3,0.8,0.7,1.4,1.2,0.7c0.5-0.9,1-1.8,1.5-2.7c-0.4-0.1-0.8-0.2-1.2-0.3c-0.1,1-0.2,2.1-0.4,3.1
					c-0.1,0.7,1,0.9,1.2,0.3c0.6-1.4,1.2-2.7,1.8-4.1c0.3-0.8-0.8-1.5-1.2-0.7c-0.5,1-0.9,2-1.2,3.1c-0.2,0.7,0.6,1.1,1.1,0.7
					c0.8-0.8,1.5-1.6,2.2-2.4c-0.4-0.3-0.7-0.5-1.1-0.8c-0.6,1-1,2-1.3,3.1c-0.2,0.6,0.5,1,1,0.8c0.3-0.2,0.7-0.3,1-0.5
					c-0.3-0.3-0.5-0.7-0.8-1c-0.3,0.5-0.7,1.1-1,1.6c-0.4,0.7,0.5,1.3,1.1,0.8c0.9-0.7,1.3-1.4,1.8-2.5c0.2-0.6-0.5-1-1-0.8
					c-2.1,1.3-3.5,3-4.3,5.3c-0.2,0.6,0.7,1.2,1.1,0.7c1.5-1.8,5-1.8,5.7-4.2c0.2-0.6-0.5-1-1-0.8c-4.7,2-7.1,5.6-8.5,10.4
					c0.4,0.1,0.9,0.1,1.3,0.2c0.1-3.4-0.3-7.4,1.3-10.5c0.4-0.8-0.8-1.4-1.2-0.7c-0.6,1.1-0.9,2.1-1.1,3.3c-0.1,0.7,0.9,1.3,1.2,0.5
					c0.9-1.9,1.9-3.8,2.8-5.7c0.4-0.8-0.7-1.4-1.2-0.7c-0.6,1-1.2,1.9-1.7,3c-0.3,0.7,0.5,1.4,1.1,0.8c1.5-1.6,2.3-3.4,2.6-5.6
					C91.8,47.1,90.5,47.1,90.4,47.9L90.4,47.9z"/>
			</g>
		</g>
		<g>
			<g>
				<path class="st2" d="M86.7,63.2c-0.5,3.8-1,7.7-1.4,11.5c-0.1,0.9,1.2,0.8,1.3,0c0.5-3.8,1-7.7,1.4-11.5
					C88.2,62.4,86.8,62.4,86.7,63.2L86.7,63.2z"/>
			</g>
		</g>
		<g>
			<g>
				<path class="st2" d="M86.5,68.1c0.7,4.7,1.1,9.5,1.2,14.3c0,0.7,1.1,0.9,1.3,0.2c1.3-5.2-0.8-10.6-1.8-15.6
					c-0.1-0.5-0.8-0.6-1.1-0.3c-1.3,1.3-1.1,2.4-0.8,4.1c0.5,2.4,1.2,4.7,1.4,7.2c0.2,1.4,1,5.7-0.4,6.7c0.3,0.2,0.7,0.4,1,0.6
					c-0.5-5,0.7-10-1.4-14.8c-0.2-0.5-1.1-0.4-1.2,0.2c-0.3,2,0.1,3.6,0.5,5.6c0.7,3.6,0.7,7.1,0.4,10.7c-0.1,0.9,1.3,0.9,1.3,0
					c0.2-2.7,0.3-5.3,0-8c-0.3-2.6-1.3-5.4-0.9-8c-0.4,0.1-0.8,0.1-1.2,0.2c2,4.5,0.7,9.4,1.2,14.1c0,0.5,0.5,0.9,1,0.6
					c1.8-1.2,1.4-2.6,1.3-4.8c-0.1-1.6-0.2-3.1-0.5-4.7c-0.3-1.7-2.3-7.3-0.9-8.7c-0.4-0.1-0.7-0.2-1.1-0.3c0.9,4.7,3,10,1.8,14.9
					c0.4,0.1,0.9,0.1,1.3,0.2c-0.1-4.9-0.6-9.8-1.3-14.6C87.7,66.9,86.4,67.2,86.5,68.1L86.5,68.1z"/>
			</g>
		</g>
		<g>
			<g>
				<path class="st2" d="M86.5,71.1c-0.2,0.6-0.4,1.2-0.4,1.9c0,0.9,1.3,0.9,1.3,0c0-0.5,0.1-1,0.3-1.5c0.1-0.3-0.1-0.7-0.5-0.8
					C86.9,70.5,86.6,70.7,86.5,71.1L86.5,71.1z"/>
			</g>
		</g>
		<path class="st2" d="M86.7,76.2l-0.4-3.3v0l-0.1-0.2L85.4,71L85,70.3l-1.7,2.9l0,0l-3.1,5.6l0,0.1l0,0l-3.7,5l-3.9,2.1l-0.5,0.3
			L71.6,86l-3.9-1.3l-1.5-4.1v0l-0.9-4.7l-2-2.4l-0.5-0.6l-0.6-0.1l-5-0.9l0,0h0l-9.6,0.7l-4.7,0.6L41,73.4L36.4,74l-5.6,1.9h0
			l-1.2,0.4L29.2,77l-1.9,2.5v0L26,84.3l-0.3,1.1l0,0v0l-1.7,3l-3.1,1.4L20.4,90l-0.7-0.1L14,88.6h0l0,0l-2-1l0,0l-1.2-0.6l2.2,3.5
			l0,0l0,0h0l0,0l5.9,4.8l0.1,0.1l0,0l0,0l0.1,0.1l5.9,3.5l0.2,0.1l0,0l4.2,2.6l3.9,1.2l0,0l0.2,0.1l7.1,2.1l0.2,0.1l0.1,0l11.7,0.8
			l0,0h0l0,0l8.3-2l0,0l0,0l10.8-4.6l0,0l0,0l0,0l8.9-5.9l0,0l0,0l0,0l5.4-5.5l0,0l0.1-0.1l0,0v0l0,0l0.4-2.5v0l0.6-3.8L86.7,76.2z
			 M60.5,97.8c-0.2,0.6-0.5,1.2-1,1.6c-0.5,0.5-1.3,0.8-2,1c-1.8,0.4-3.8,0.1-5.5-0.8c-0.6-0.3-1.1-0.7-1.8-0.9
			c-0.6-0.2-1.4-0.2-1.9,0.2c-0.4,0.3-0.6,0.8-0.8,1.3c-0.9,2-2.7,3.7-4.8,3.7c-0.9,0-1.7-0.3-2.5-0.6c-3.3-1.3-6.5-3.3-8.8-6
			c-2.3-2.8-3.6-6.4-3.2-10c0.5-3.6,2.9-6.9,6.4-7.9c6.7-1.5,13.7-3.5,20.5-2.8c2.1,0.2,4.3,0.7,5.7,2.2c1.4,1.5,1.7,3.7,1.8,5.7
			C63,88.9,62.2,93.5,60.5,97.8z"/>
		<polygon class="st2" points="40.7,85.2 42,92.8 50.3,90 55.8,85.4 57.3,80.5 51.8,83.3 45.3,85.4 		"/>
	</g>
</g>
</svg>
