<?xml version="1.0" encoding="utf-8"?>
<!-- Generator: Adobe Illustrator 22.1.0, SVG Export Plug-In . SVG Version: 6.00 Build 0)  -->
<svg version="1.1" id="Layer_1" xmlns="http://www.w3.org/2000/svg" xmlns:xlink="http://www.w3.org/1999/xlink" x="0px" y="0px"
	 viewBox="0 0 104.5 107" style="enable-background:new 0 0 104.5 107;" xml:space="preserve">
<style type="text/css">
	.st0{fill:#FFFFFF;}
	.st1{fill:#33333E;}
</style>
<g>
	<path class="st0" d="M102,56c-0.4-0.5-0.8-0.9-1.4-1.2s-1.3-0.3-2-0.3l0,0c0.9-5.7,1-11.7,0-17.8c-3.1-18.6-23-36.9-54-35.8
		c0,0-11.6,0.4-22.9,6.6l0,0l0,0c-3,1.6-5.9,3.6-8.6,6.1C0.2,25.7-1.2,44,3.1,55.5C7.3,67,5.6,77.2,9.6,85.6l-0.2,0.1
		c0.1,0.1,0.2,0.2,0.3,0.3c1.5,2.9,3.7,5.6,7.1,8c13.4,9.6,27.7,13.6,37.9,11.6c10.3-2,28.6-10.3,33.9-21.9c0.3-0.6,0.5-1.2,0.8-1.8
		l0,0l0,0c1.4-3.1,2.9-6.5,4.3-10.1c1.7-0.6,3.3-1.3,4.8-2.3c2.3-1.5,4.2-3.6,4.9-6.2C104.2,60.9,103.6,58,102,56z"/>
</g>
<g>
	<path class="st1" d="M99.9,59.1c-4,1.1-8.4,2.7-9.7,7.2c-0.1,0.7,1.2,1.1,1.4,0.3c0.7-2.6,2.8-4,5.1-5c1.2,1.5,1.6,3.4,1.1,5.3
		c-0.2,0.8,1,1.2,1.3,0.4c0.6-2.1,0.2-4.1-0.9-5.9c0-0.1,0.1-0.2,0.1-0.3c0,0,0,0,0-0.1c0.7-0.2,1.4-0.4,2-0.6
		C101.1,60.2,100.8,58.9,99.9,59.1z"/>
	<path class="st1" d="M60.5,52.7c-1,1.2-1.4,2.8-0.8,4.3c0.7,1.9,2.7,2.9,4.5,1.6c1.6-1.3,1.8-4.4,0.8-6.1
		C63.9,50.6,61.4,50.9,60.5,52.7z"/>
	<path class="st1" d="M20.3,54.9c-1.2-0.2-2.1,0.8-2.4,2.1c-0.3,1.8,0.7,3.6,2.3,4.4c1.5,0.7,3.1,0.4,3.4-1.4
		c0.3-1.7-0.6-3.6-1.8-4.7C21.3,54.8,20.7,54.8,20.3,54.9z"/>
	<path class="st1" d="M13.4,55.5c1.4-4.2,8.9-5.6,12.7-5.9c0.9-0.1,0.9-1.4,0-1.3c-4.5,0.3-12.3,1.9-13.9,6.9
		C11.9,55.9,13.1,56.3,13.4,55.5z"/>
	<path class="st1" d="M58.2,45.2c6.4-1.3,12.7,0.6,17.4,5.1c0.6,0.6,1.6-0.3,0.9-0.9c-5-4.9-11.8-6.9-18.7-5.5
		C57,44,57.4,45.3,58.2,45.2z"/>
	<path class="st1" d="M39.5,67.3c0.3-4.9,0.4-9.7,0.3-14.6c0-0.8-1.3-0.8-1.3,0c0.1,4.9,0,9.7-0.3,14.6
		C38.1,68.2,39.5,68.2,39.5,67.3z"/>
	<path class="st1" d="M35.2,85.7c1.6,0.2,3.1,0.3,4.7,0.3c0.8,1.8,1.2,3.9,1.3,5.9c-0.5,0.1-1.1,0.1-1.7,0.1c-0.9,0-0.9,1.4,0,1.3
		c0.7,0,1.4-0.1,2.2-0.2c0.2,0.1,0.5,0,0.7-0.1c3.7-0.6,7.5-2,10.6-4c3.1-2.1,4.3-5.7,5.2-9.2c0.2-0.7-0.6-1.1-1.1-0.7
		c-6,5.6-14.1,5.9-21.8,5.1C34.4,84.3,34.4,85.6,35.2,85.7z"/>
	<path class="st1" d="M99.6,53.9c0.8-5.8,0.8-11.6-0.1-17.3C96.3,17.6,76.4-1,44.6,0.1c-0.8,0-19,0.9-32.1,12.9
		C-0.3,24.9-2.3,43.5,2.3,55.8c2.1,5.6,2.7,10.8,3.3,15.8c1.1,9,2,16.8,10.8,23.2c10.9,7.8,23.1,12.3,33,12.3c1.9,0,3.8-0.2,5.5-0.5
		c10.8-2.1,29.2-10.7,34.5-22.4l0.6-1.4c1.4-3.1,3.1-6.7,4.5-10.5c4.2-1.6,8.4-4,9.7-8.7C105.3,59.9,103.7,54.6,99.6,53.9z
		 M28.2,87.3c0.5-3.6,2.9-6.9,6.4-7.9c6.7-1.5,13.7-3.5,20.5-2.8c2.1,0.2,4.3,0.7,5.7,2.2c1.4,1.5,1.7,3.7,1.8,5.7
		c0.4,4.4-0.4,9-2.1,13.3c-0.2,0.6-0.5,1.2-1,1.6c-0.5,0.5-1.3,0.8-2,1c-1.8,0.4-3.8,0.1-5.5-0.8c-0.6-0.3-1.1-0.7-1.8-0.9
		c-0.6-0.2-1.4-0.2-1.9,0.2c-0.4,0.3-0.6,0.8-0.8,1.3c-0.9,2-2.7,3.7-4.8,3.7c-0.9,0-1.7-0.3-2.5-0.6c-3.3-1.3-6.5-3.3-8.8-6
		C29.1,94.5,27.8,90.9,28.2,87.3z M3.9,55.2c-4.4-11.8-2.5-29.6,9.8-40.8c2.5-2.3,5.3-4.2,8.1-5.8c3.9,3.8,8.7,6.6,14.1,7.3
		c6.5,0.9,10.5-1.3,15.5-5c7.1-5.3,18.2-3,25.3,1.4c7.8,4.8,13.5,13.4,15,22.4c0.8,4.9-0.2,9.4-2.4,13.8c-1.2,2.4-2.8,4.1-3.3,6.8
		c-0.4,2.6-0.2,5.3-0.4,7.9c-0.4,5.4-2.8,10.1-5.5,14.7c-1,1.7-2,3.7-3.4,5c-3.2,2.8-3.4,2.5-6.7-0.3c-2-1.7-2.4-2.3-2.4-2.3
		s-0.2-0.2-0.8-2.1c-0.8-2-1.2-3.7-3-5.1c-3.9-3.1-10.5-1.7-15-1.2c-1.1,0.1-2.2,0.2-3.3,0.3c0.2-0.2,0.4-0.3,0.5-0.5
		c1.1-1,2.6-1.8,3.5-2.9c1.4-1.8,1-3.8-0.5-5.3c-0.6-0.6-1.6,0.3-0.9,0.9c2.5,2.4-2.2,5.8-3.9,7.2c-0.5,0.4-1.2,0.7-2,0.9
		c-0.4,0-0.7,0.1-1.1,0.1c-3.3,0.1-7.1-2-6.4-5.5c0.1-0.8-1.2-1.2-1.4-0.3c-0.6,2.8,1.2,5.1,3.6,6.4c-2.4,0.5-4.7,1.2-6.7,2.4
		c-2.4,1.4-3.5,3.3-4.2,5.9c-0.9,3.3-0.4,3.5-3.8,5.8c-3,2.1-3.1,2.3-6.5,1.2c-1.9-0.6-3.4-1.4-4.9-2.6c-2.3-4.3-2.8-9.2-3.5-14.5
		C6.7,66.5,6.1,61,3.9,55.2z M102.9,63.2c-0.9,5.2-7.6,7.5-11.8,8.9c-0.8,0.3-0.5,1.6,0.4,1.3c0.3-0.1,0.6-0.2,0.9-0.3
		c-0.6,1.7-1.3,3.3-2,4.8c-0.5-6.7-3.4-13.2,1.3-19.3C95.7,53.5,104.2,56.1,102.9,63.2z"/>
</g>
<path class="st0" d="M20.6,57.3L20.6,57.3c-0.4,0-0.8-0.4-0.8-0.8l0,0c0-0.4,0.4-0.8,0.8-0.8l0,0c0.4,0,0.8,0.4,0.8,0.8l0,0
	C21.4,56.9,21.1,57.3,20.6,57.3z"/>
<path class="st0" d="M63.5,53.9L63.5,53.9c-0.4,0-0.8-0.4-0.8-0.8l0,0c0-0.4,0.4-0.8,0.8-0.8l0,0c0.4,0,0.8,0.4,0.8,0.8l0,0
	C64.3,53.6,63.9,53.9,63.5,53.9z"/>
</svg>
