<?xml version="1.0" encoding="utf-8"?>
<!-- Generator: Adobe Illustrator 22.1.0, SVG Export Plug-In . SVG Version: 6.00 Build 0)  -->
<svg version="1.1" xmlns="http://www.w3.org/2000/svg" xmlns:xlink="http://www.w3.org/1999/xlink" x="0px" y="0px"
	 viewBox="0 0 99 99" style="enable-background:new 0 0 99 99;" xml:space="preserve">
<style type="text/css">
	.st0{fill-rule:evenodd;clip-rule:evenodd;fill:#1A79D8;}
	.st1{fill-rule:evenodd;clip-rule:evenodd;fill:#3888E8;}
	.st2{fill-rule:evenodd;clip-rule:evenodd;fill:#A841D8;}
	.st3{fill-rule:evenodd;clip-rule:evenodd;fill:#F91632;}
	.st4{fill-rule:evenodd;clip-rule:evenodd;fill:#FFFFFF;}
</style>
<g id="_x31_6">
	<rect x="0" y="0" class="st2" width="99" height="99"/>
	<g>
		<path class="st4" d="M49.5,33.5c-8.8,0-16,7.2-16,16c0,8.9,7.2,16,16,16c8.8,0,16-7.2,16-16C65.5,40.7,58.4,33.5,49.5,33.5z
			 M49.5,62.2c-7,0-12.7-5.7-12.7-12.7c0-7,5.7-12.7,12.7-12.7c7,0,12.7,5.7,12.7,12.7C62.2,56.5,56.5,62.2,49.5,62.2z M65.2,31.3
			c-1.4,0-2.6,1.2-2.6,2.6c0,1.4,1.2,2.6,2.6,2.6c1.4,0,2.6-1.2,2.6-2.6C67.8,32.5,66.6,31.3,65.2,31.3z M65.2,31.3
			c-1.4,0-2.6,1.2-2.6,2.6c0,1.4,1.2,2.6,2.6,2.6c1.4,0,2.6-1.2,2.6-2.6C67.8,32.5,66.6,31.3,65.2,31.3z M49.5,33.5
			c-8.8,0-16,7.2-16,16c0,8.9,7.2,16,16,16c8.8,0,16-7.2,16-16C65.5,40.7,58.4,33.5,49.5,33.5z M49.5,62.2c-7,0-12.7-5.7-12.7-12.7
			c0-7,5.7-12.7,12.7-12.7c7,0,12.7,5.7,12.7,12.7C62.2,56.5,56.5,62.2,49.5,62.2z M49.5,33.5c-8.8,0-16,7.2-16,16
			c0,8.9,7.2,16,16,16c8.8,0,16-7.2,16-16C65.5,40.7,58.4,33.5,49.5,33.5z M49.5,62.2c-7,0-12.7-5.7-12.7-12.7
			c0-7,5.7-12.7,12.7-12.7c7,0,12.7,5.7,12.7,12.7C62.2,56.5,56.5,62.2,49.5,62.2z M65.2,31.3c-1.4,0-2.6,1.2-2.6,2.6
			c0,1.4,1.2,2.6,2.6,2.6c1.4,0,2.6-1.2,2.6-2.6C67.8,32.5,66.6,31.3,65.2,31.3z M65.2,31.3c-1.4,0-2.6,1.2-2.6,2.6
			c0,1.4,1.2,2.6,2.6,2.6c1.4,0,2.6-1.2,2.6-2.6C67.8,32.5,66.6,31.3,65.2,31.3z M49.5,33.5c-8.8,0-16,7.2-16,16c0,8.9,7.2,16,16,16
			c8.8,0,16-7.2,16-16C65.5,40.7,58.4,33.5,49.5,33.5z M49.5,62.2c-7,0-12.7-5.7-12.7-12.7c0-7,5.7-12.7,12.7-12.7
			c7,0,12.7,5.7,12.7,12.7C62.2,56.5,56.5,62.2,49.5,62.2z M62.6,24.7H36.4c-6.5,0-11.7,5.3-11.7,11.7v26.2
			c0,6.4,5.3,11.7,11.7,11.7h26.2c6.5,0,11.7-5.3,11.7-11.7V36.4C74.3,30,69.1,24.7,62.6,24.7z M71.4,62.6c0,4.8-3.9,8.8-8.8,8.8
			H36.4c-4.9,0-8.8-4-8.8-8.8V36.4c0-4.9,3.9-8.8,8.8-8.8h26.2c4.9,0,8.8,3.9,8.8,8.8V62.6z M65.2,31.3c-1.4,0-2.6,1.2-2.6,2.6
			c0,1.4,1.2,2.6,2.6,2.6c1.4,0,2.6-1.2,2.6-2.6C67.8,32.5,66.6,31.3,65.2,31.3z M49.5,33.5c-8.8,0-16,7.2-16,16c0,8.9,7.2,16,16,16
			c8.8,0,16-7.2,16-16C65.5,40.7,58.4,33.5,49.5,33.5z M49.5,62.2c-7,0-12.7-5.7-12.7-12.7c0-7,5.7-12.7,12.7-12.7
			c7,0,12.7,5.7,12.7,12.7C62.2,56.5,56.5,62.2,49.5,62.2z M49.5,33.5c-8.8,0-16,7.2-16,16c0,8.9,7.2,16,16,16c8.8,0,16-7.2,16-16
			C65.5,40.7,58.4,33.5,49.5,33.5z M49.5,62.2c-7,0-12.7-5.7-12.7-12.7c0-7,5.7-12.7,12.7-12.7c7,0,12.7,5.7,12.7,12.7
			C62.2,56.5,56.5,62.2,49.5,62.2z M65.2,31.3c-1.4,0-2.6,1.2-2.6,2.6c0,1.4,1.2,2.6,2.6,2.6c1.4,0,2.6-1.2,2.6-2.6
			C67.8,32.5,66.6,31.3,65.2,31.3z M65.2,31.3c-1.4,0-2.6,1.2-2.6,2.6c0,1.4,1.2,2.6,2.6,2.6c1.4,0,2.6-1.2,2.6-2.6
			C67.8,32.5,66.6,31.3,65.2,31.3z M49.5,33.5c-8.8,0-16,7.2-16,16c0,8.9,7.2,16,16,16c8.8,0,16-7.2,16-16
			C65.5,40.7,58.4,33.5,49.5,33.5z M49.5,62.2c-7,0-12.7-5.7-12.7-12.7c0-7,5.7-12.7,12.7-12.7c7,0,12.7,5.7,12.7,12.7
			C62.2,56.5,56.5,62.2,49.5,62.2z M49.5,33.5c-8.8,0-16,7.2-16,16c0,8.9,7.2,16,16,16c8.8,0,16-7.2,16-16
			C65.5,40.7,58.4,33.5,49.5,33.5z M49.5,62.2c-7,0-12.7-5.7-12.7-12.7c0-7,5.7-12.7,12.7-12.7c7,0,12.7,5.7,12.7,12.7
			C62.2,56.5,56.5,62.2,49.5,62.2z M65.2,31.3c-1.4,0-2.6,1.2-2.6,2.6c0,1.4,1.2,2.6,2.6,2.6c1.4,0,2.6-1.2,2.6-2.6
			C67.8,32.5,66.6,31.3,65.2,31.3z M65.2,31.3c-1.4,0-2.6,1.2-2.6,2.6c0,1.4,1.2,2.6,2.6,2.6c1.4,0,2.6-1.2,2.6-2.6
			C67.8,32.5,66.6,31.3,65.2,31.3z M49.5,33.5c-8.8,0-16,7.2-16,16c0,8.9,7.2,16,16,16c8.8,0,16-7.2,16-16
			C65.5,40.7,58.4,33.5,49.5,33.5z M49.5,62.2c-7,0-12.7-5.7-12.7-12.7c0-7,5.7-12.7,12.7-12.7c7,0,12.7,5.7,12.7,12.7
			C62.2,56.5,56.5,62.2,49.5,62.2z"/>
	</g>
</g>
<g id="Layer_1">
</g>
</svg>
