<?xml version="1.0" encoding="utf-8"?>
<!-- Generator: Adobe Illustrator 22.1.0, SVG Export Plug-In . SVG Version: 6.00 Build 0)  -->
<svg version="1.1" id="Layer_1" xmlns="http://www.w3.org/2000/svg" xmlns:xlink="http://www.w3.org/1999/xlink" x="0px" y="0px"
	 viewBox="0 0 75 75" style="enable-background:new 0 0 75 75;" xml:space="preserve">
<path d="M44.8,27.2c-0.2,0.1-0.3,0.2-0.4,0.2c-4.1,2.5-8.1,5-12.2,7.5c-0.3,0.2-0.4,0.3-0.3,0.7c0.3,1.2,0.3,2.4,0,3.6
	c0,0.2-0.1,0.4,0.2,0.6c4.3,2.6,8.5,5.3,12.8,8c0.1-0.1,0.2-0.2,0.3-0.3c2.4-2.5,5.4-3.4,8.7-2.4c3.3,1,5.4,3.3,6,6.7
	c0.9,4.6-2.3,9.1-7,9.9c-4.6,0.8-9.1-2.4-9.8-7c-0.1-0.8-0.1-1.6,0-2.4c0-0.3,0-0.5-0.3-0.6c-4.2-2.6-8.5-5.3-12.7-7.9
	c-0.4-0.2-0.5,0-0.7,0.1c-2.5,2.2-5.4,2.9-8.5,1.8c-3.2-1.1-5.1-3.4-5.6-6.7c-0.6-3.6,1.1-7.1,4.3-8.9c3.2-1.7,7-1.3,9.7,1.1
	c0.4,0.3,0.6,0.3,1,0.1c4.2-2.6,8.3-5.2,12.5-7.8c0.3-0.2,0.4-0.4,0.4-0.8c-0.4-3.2,1.3-6.6,4.3-8.2c3-1.7,6.8-1.5,9.4,0.7
	c2.7,2.1,3.8,5,3.1,8.3c-0.7,3.4-2.8,5.7-6.1,6.6c-3.3,0.9-6.2-0.1-8.6-2.6C45,27.4,44.9,27.3,44.8,27.2z M51.5,17.6
	c-2.3-0.1-4.3,2.1-4.3,4.3c0,2.2,2,4.3,4.3,4.3c2.3,0,4.3-2.1,4.3-4.3C55.8,19.7,53.7,17.5,51.5,17.6z M23.5,33.2
	c-2.3-0.1-4.3,2.1-4.3,4.2c0,2.2,2,4.3,4.3,4.3c2.3,0,4.3-2.1,4.3-4.3C27.8,35.3,25.8,33.1,23.5,33.2z M55.7,53.1
	c0.1-2.2-2-4.3-4.3-4.3c-2.2,0-4.3,2.1-4.3,4.3c0,2.2,2,4.3,4.3,4.3C53.7,57.4,55.9,55.4,55.7,53.1z"/>
</svg>
