<?xml version="1.0" encoding="utf-8"?>
<!-- Generator: Adobe Illustrator 22.1.0, SVG Export Plug-In . SVG Version: 6.00 Build 0)  -->
<svg version="1.1" id="Layer_1" xmlns="http://www.w3.org/2000/svg" xmlns:xlink="http://www.w3.org/1999/xlink" x="0px" y="0px"
	 viewBox="0 0 73.7 73.7" style="enable-background:new 0 0 73.7 73.7;" xml:space="preserve">
<style type="text/css">
	.st0{fill:#FFFFFF;}
	.st1{fill:none;stroke:#FFFFFF;stroke-miterlimit:10;}
</style>
<g>
	<g>
		<g>
			<g>
				<g>
					<path class="st0" d="M42,17.5v17.8c0,3-0.9,5.3-2.8,7c-1.8,1.7-4.4,2.6-7.6,2.6c-3.2,0-5.7-0.8-7.5-2.5s-2.8-4-2.8-6.9v-18h5.6
						v17.8c0,1.8,0.4,3.1,1.3,3.9c0.8,0.8,2,1.2,3.5,1.2c3.1,0,4.7-1.6,4.8-4.9v-18H42z"/>
					<path class="st0" d="M52.4,44.5h-5.6v-27h5.6V44.5z"/>
				</g>
			</g>
			<g>
				<g>
					<path class="st0" d="M21.4,54.1c0-1.1,0.2-1.9,0.7-2.5c0.5-0.6,1.1-0.9,1.9-0.9c0.9,0,1.6,0.4,2.1,1.1v-3.9h0.8v9.8h-0.7l0-0.9
						c-0.5,0.7-1.2,1-2.1,1c-0.8,0-1.4-0.3-1.9-1C21.6,56.1,21.4,55.2,21.4,54.1L21.4,54.1z M22.2,54.2c0,0.9,0.2,1.6,0.5,2.1
						s0.8,0.8,1.5,0.8c0.9,0,1.6-0.4,2-1.2v-3.2c-0.4-0.9-1.1-1.3-2-1.3c-0.6,0-1.1,0.3-1.5,0.8C22.3,52.5,22.2,53.2,22.2,54.2z"/>
					<path class="st0" d="M33.3,57.6c-0.1-0.2-0.1-0.5-0.1-1c-0.3,0.3-0.6,0.6-1,0.8c-0.4,0.2-0.8,0.3-1.3,0.3
						c-0.7,0-1.2-0.2-1.6-0.6c-0.4-0.4-0.6-0.8-0.6-1.4c0-0.7,0.3-1.2,0.8-1.6c0.6-0.4,1.3-0.6,2.3-0.6h1.4v-0.8
						c0-0.5-0.2-0.9-0.5-1.2c-0.3-0.3-0.7-0.4-1.3-0.4c-0.5,0-1,0.1-1.3,0.4c-0.3,0.3-0.5,0.6-0.5,1l-0.8,0c0-0.5,0.3-1,0.8-1.4
						c0.5-0.4,1.1-0.6,1.9-0.6c0.8,0,1.4,0.2,1.8,0.6c0.4,0.4,0.7,0.9,0.7,1.6V56c0,0.7,0.1,1.2,0.2,1.5v0.1H33.3z M30.9,57
						c0.5,0,1-0.1,1.4-0.4c0.4-0.2,0.7-0.6,0.9-1v-1.5h-1.4c-0.8,0-1.4,0.1-1.8,0.4s-0.6,0.6-0.6,1.1c0,0.4,0.1,0.7,0.4,1
						C30,56.9,30.4,57,30.9,57z"/>
					<path class="st0" d="M35.8,48.7c0-0.1,0-0.3,0.1-0.4s0.2-0.1,0.4-0.1s0.3,0,0.4,0.1c0.1,0.1,0.1,0.2,0.1,0.4
						c0,0.1,0,0.3-0.1,0.4c-0.1,0.1-0.2,0.1-0.4,0.1s-0.3,0-0.4-0.1S35.8,48.9,35.8,48.7z M36.7,57.6H36v-6.9h0.8V57.6z"/>
					<path class="st0" d="M39.6,57.6h-0.8v-9.8h0.8V57.6z"/>
					<path class="st0" d="M44.4,57.7c-0.6,0-1.1-0.1-1.6-0.4c-0.5-0.3-0.8-0.7-1.1-1.2c-0.3-0.5-0.4-1.1-0.4-1.7v-0.3
						c0-0.7,0.1-1.3,0.4-1.8s0.6-0.9,1.1-1.2s1-0.5,1.5-0.5c0.8,0,1.5,0.3,2,0.9c0.5,0.6,0.7,1.3,0.7,2.3v0.4H42v0.1
						c0,0.8,0.2,1.4,0.7,1.9s1,0.8,1.7,0.8c0.4,0,0.8-0.1,1.1-0.2c0.3-0.1,0.6-0.4,0.8-0.7l0.5,0.4C46.2,57.3,45.4,57.7,44.4,57.7z
						 M44.2,51.2c-0.6,0-1.1,0.2-1.4,0.6c-0.4,0.4-0.6,1-0.7,1.7h4.1v-0.1c0-0.7-0.2-1.2-0.6-1.6S44.8,51.2,44.2,51.2z"/>
					<path class="st0" d="M50.6,56.5l2-5.8h0.8l-2.9,8l-0.2,0.4c-0.4,0.8-1,1.3-1.7,1.3c-0.2,0-0.4,0-0.6-0.1l0-0.6l0.4,0
						c0.4,0,0.7-0.1,0.9-0.3c0.2-0.2,0.4-0.5,0.6-0.9l0.3-0.9l-2.6-6.8h0.8L50.6,56.5z"/>
				</g>
			</g>
		</g>
	</g>
	<rect x="0.5" y="0.5" class="st1" width="72.7" height="72.7"/>
	<rect x="4.2" y="4.2" class="st1" width="65.4" height="65.4"/>
</g>
</svg>
